<?xml version="1.0" encoding="UTF-8"?>
<svg width="2600px" height="1679px" viewBox="0 0 2600 1679" version="1.1" xmlns="http://www.w3.org/2000/svg" xmlns:xlink="http://www.w3.org/1999/xlink">
    <!-- Generator: Sketch 55.2 (78181) - https://sketchapp.com -->
    <title>design-systems-cover-minimal</title>
    <desc>Created with Sketch.</desc>
    <g id="design-systems-cover-minimal" stroke="none" stroke-width="1" fill="none" fill-rule="evenodd">
        <g id="Group-2" transform="translate(444.000000, 616.000000)">
            <g id="sketch-symbol" transform="translate(0.000000, 45.000000)" fill-rule="nonzero">
                <polygon id="Path" fill="#FDB300" points="85.790323 11.7151549 196.602823 0 307.415323 11.7151549 393.205645 126.881084 196.602823 355.823009 0 126.881084"></polygon>
                <g id="Group" transform="translate(0.000000, 126.881084)">
                    <polygon id="Path" fill="#EA6C00" points="79.634 0 196.603 228.942 0 0"></polygon>
                    <polygon id="Path" fill="#EA6C00" transform="translate(294.903968, 114.471000) scale(-1, 1) translate(-294.903968, -114.471000) " points="276.236468 0 393.205468 228.942 196.602468 0"></polygon>
                    <polygon id="Path" fill="#FDAD00" points="79.634 0 313.572 0 196.603 228.942"></polygon>
                </g>
                <g id="Group">
                    <polygon id="Path" fill="#FDD231" points="196.603 0 85.79 11.715 79.634 126.881"></polygon>
                    <polygon id="Path" fill="#FDD231" transform="translate(255.086896, 63.440500) scale(-1, 1) translate(-255.086896, -63.440500) " points="313.571396 0 202.758396 11.715 196.602396 126.881"></polygon>
                    <polygon id="Path" fill="#FDAD00" transform="translate(350.310468, 69.298000) scale(-1, 1) translate(-350.310468, -69.298000) " points="307.414968 126.881 393.205968 11.715 387.048968 126.881"></polygon>
                    <polygon id="Path" fill="#FDAD00" points="0 126.881 85.79 11.715 79.634 126.881"></polygon>
                    <polygon id="Path" fill="#FEEEB7" points="196.603 0 79.634 126.881 313.572 126.881"></polygon>
                </g>
            </g>
            <g id="invision_logo_pink" transform="translate(1357.000000, 45.000000)" fill-rule="nonzero">
                <path d="M356,32.29632 C356.007545,23.7334233 352.611244,15.5186535 346.559031,9.4610985 C340.506818,3.40354354 332.295048,0 323.732149,0 L32.2678389,0 C14.4468035,0 0,14.4468041 0,32.26784 L0,323.73216 C0,341.553196 14.4468035,356 32.2678389,356 L323.732149,356 C341.553184,356 356,341.553196 356,323.73216 L356,32.29632 Z" id="Path" fill="#FF3366"></path>
                <path d="M119.378052,110.998657 C130.915452,110.79087 140.123819,101.312525 139.998741,89.7733948 C139.873662,78.2342647 130.462003,68.9577699 118.92281,69 C107.383617,69.0425193 98.040335,78.3878867 98,89.9276242 C98.0183049,95.5639136 100.286415,100.959548 104.300521,104.916004 C108.314626,108.872461 113.742353,111.062142 119.378052,110.998657 Z" id="Path" fill="#FFFFFF"></path>
                <path d="M73.9513488,227.24473 C72.7180177,232.553863 72.0726824,237.983624 72.0270939,243.435141 C72.0270939,262.402687 82.275533,275 104.040994,275 C122.100483,275 136.739074,264.235023 147.272588,246.842141 L140.844151,272.781155 L176.749323,272.781155 L197.231947,190.254437 C202.34904,169.354348 212.269643,158.503481 227.321593,158.503481 C239.166451,158.503481 246.535634,165.904402 246.535634,178.115207 C246.572676,182.032713 246.015133,185.933016 244.8822,189.681832 L234.320179,227.616923 C232.814852,232.840987 232.061275,238.254434 232.082342,243.692813 C232.082342,261.701245 242.644363,274.871164 264.737661,274.871164 C283.623866,274.871164 298.675816,262.660359 307,233.35729 L292.917305,227.903226 C285.875957,247.500637 279.78961,251.050789 274.9861,251.050789 C270.182589,251.050789 267.616916,247.8442 267.616916,241.416708 C267.75016,238.024615 268.286091,234.660622 269.213335,231.396117 L279.461774,194.434454 C281.759143,186.86014 282.945163,178.990011 282.982448,171.072164 C282.982448,143.42965 266.334079,129 246.165037,129 C227.278831,129 208.06479,146.178155 198.472023,164.115011 L205.51337,131.79145 L150.779008,131.79145 L143.096242,160.264242 L168.752974,160.264242 L152.988338,223.680263 C140.601838,251.322777 117.852868,251.780861 115.00212,251.13668 C110.31264,250.077361 107.319354,248.273654 107.319354,242.175409 C107.460225,237.196364 108.211841,232.253758 109.557192,227.459457 L133.503475,131.805765 L72.6970197,131.805765 L65,160.264242 L90.286135,160.264242 L73.9513488,227.24473 Z" id="Path" fill="#FFFFFF"></path>
            </g>
            <g id="Glyph/Dropbox" transform="translate(652.000000, 0.000000)" fill="#0061FF">
                <g id="Group" transform="translate(21.769481, 52.246753)">
                    <path d="M303.379624,128.163731 L403.616328,192.022782 L302.674149,256.331279 L201.807439,192.071786 L100.942179,256.331279 L0,192.022782 L100.235258,128.164652 L0,64.3070455 L100.94363,0 L201.806715,64.2585052 L302.675601,0 L403.614877,64.3070455 L303.379624,128.163731 Z M301.967219,128.164652 L201.806713,64.3555857 L101.647653,128.163731 L201.807439,191.973779 L301.967219,128.164652 Z M101.590909,277.642149 L202.533088,213.340909 L303.476718,277.642149 L202.533088,341.950646 L101.590909,277.642149 Z" id="Combined-Shape"></path>
                </g>
            </g>
        </g>
    </g>
</svg>