<?xml version="1.0" standalone="no"?>
<!DOCTYPE svg PUBLIC "-//W3C//DTD SVG 20010904//EN"
 "http://www.w3.org/TR/2001/REC-SVG-20010904/DTD/svg10.dtd">
<svg version="1.0" xmlns="http://www.w3.org/2000/svg"
 width="280.000000pt" height="280.000000pt" viewBox="0 0 280.000000 280.000000"
 preserveAspectRatio="xMidYMid meet">
<metadata>
Created by potrace 1.14, written by Peter Selinger 2001-2017
</metadata>
<g transform="translate(0.000000,280.000000) scale(0.100000,-0.100000)"
fill="#000000" stroke="none">
<path d="M1294 2735 c-115 -35 -179 -92 -269 -245 -37 -63 -94 -159 -126 -213
-33 -54 -59 -100 -59 -101 0 -2 -19 -35 -42 -72 -35 -59 -235 -398 -288 -489
-27 -46 -110 -188 -185 -315 -37 -63 -79 -135 -93 -160 -14 -25 -39 -67 -57
-95 -17 -27 -34 -57 -38 -65 -4 -8 -21 -37 -38 -65 -16 -27 -44 -79 -62 -115
-29 -60 -32 -73 -32 -165 0 -93 3 -105 33 -166 33 -67 99 -138 158 -171 87
-49 78 -48 1210 -48 1158 0 1113 -2 1208 57 75 47 143 139 171 233 13 42 12
142 -1 193 -15 59 -18 64 -329 592 -62 105 -183 312 -270 460 -87 149 -194
331 -238 405 -44 74 -88 150 -99 169 -84 149 -154 254 -192 289 -96 89 -240
123 -362 87z"/>
</g>
</svg>
